<svg width="18" height="16" viewBox="0 0 18 16" fill="none" xmlns="http://www.w3.org/2000/svg">
<path fill-rule="evenodd" clip-rule="evenodd" d="M14.1429 9.32144V12.5357C14.1429 13.3326 13.86 14.014 13.2941 14.5798C12.7283 15.1457 12.0469 15.4286 11.25 15.4286H2.89286C2.09598 15.4286 1.41462 15.1457 0.848772 14.5798C0.282924 14.014 0 13.3326 0 12.5357V4.17856C0 3.38169 0.282924 2.70032 0.848772 2.13447C1.41462 1.56863 2.09598 1.2857 2.89286 1.2857H9.96428C10.058 1.2857 10.135 1.31584 10.1953 1.3761C10.2556 1.43637 10.2857 1.51338 10.2857 1.60713V2.24999C10.2857 2.34374 10.2556 2.42075 10.1953 2.48102C10.135 2.54128 10.058 2.57142 9.96428 2.57142H2.89286C2.45089 2.57142 2.07255 2.72878 1.75781 3.04352C1.44308 3.35825 1.28572 3.7366 1.28572 4.17856V12.5357C1.28572 12.9777 1.44308 13.356 1.75781 13.6708C2.07255 13.9855 2.45089 14.1429 2.89286 14.1429H11.25C11.692 14.1429 12.0703 13.9855 12.3851 13.6708C12.6998 13.356 12.8572 12.9777 12.8572 12.5357V9.32144C12.8572 9.22769 12.8873 9.15068 12.9476 9.09041C13.0078 9.03014 13.0848 9.00001 13.1786 9.00001H13.8214C13.9152 9.00001 13.9922 9.03014 14.0525 9.09041C14.1127 9.15068 14.1429 9.22769 14.1429 9.32144ZM18 0.642857V5.78571C18 5.95982 17.9364 6.11049 17.8092 6.23772C17.6819 6.36496 17.5313 6.42857 17.3572 6.42857C17.1831 6.42857 17.0324 6.36496 16.9052 6.23772L15.1373 4.46987L8.58817 11.019C8.52121 11.086 8.4442 11.1194 8.35715 11.1194C8.27009 11.1194 8.19308 11.086 8.12612 11.019L6.98103 9.8739C6.91407 9.80693 6.88059 9.72993 6.88059 9.64287C6.88059 9.55582 6.91407 9.47881 6.98103 9.41184L13.5302 2.86272L11.7623 1.09487C11.6351 0.967634 11.5714 0.816964 11.5714 0.642857C11.5714 0.46875 11.6351 0.31808 11.7623 0.190848C11.8895 0.063616 12.0402 0 12.2143 0H17.3572C17.5313 0 17.6819 0.063616 17.8092 0.190848C17.9364 0.31808 18 0.46875 18 0.642857Z" fill="#1D70B8"/>
</svg>
